<mxfile host="app.diagrams.net" agent="Mozilla/5.0 (Windows NT 10.0; Win64; x64) AppleWebKit/537.36 (KHTML, like Gecko) Chrome/131.0.0.0 Safari/537.36" version="26.0.4">
  <diagram id="C5RBs43oDa-KdzZeNtuy" name="Page-1">
    <mxGraphModel dx="1434" dy="738" grid="1" gridSize="10" guides="1" tooltips="1" connect="1" arrows="1" fold="1" page="1" pageScale="1" pageWidth="827" pageHeight="1169" math="0" shadow="0">
      <root>
        <mxCell id="WIyWlLk6GJQsqaUBKTNV-0" />
        <mxCell id="WIyWlLk6GJQsqaUBKTNV-1" parent="WIyWlLk6GJQsqaUBKTNV-0" />
        <mxCell id="7m2W67UrVmQdeEctq9eO-3" style="edgeStyle=orthogonalEdgeStyle;rounded=0;orthogonalLoop=1;jettySize=auto;html=1;entryX=0.5;entryY=0;entryDx=0;entryDy=0;" edge="1" parent="WIyWlLk6GJQsqaUBKTNV-1" source="7m2W67UrVmQdeEctq9eO-0" target="7m2W67UrVmQdeEctq9eO-2">
          <mxGeometry relative="1" as="geometry" />
        </mxCell>
        <mxCell id="7m2W67UrVmQdeEctq9eO-0" value="Title" style="rounded=1;whiteSpace=wrap;html=1;absoluteArcSize=1;arcSize=14;strokeWidth=2;" vertex="1" parent="WIyWlLk6GJQsqaUBKTNV-1">
          <mxGeometry x="289" y="40" width="250" height="50" as="geometry" />
        </mxCell>
        <mxCell id="7m2W67UrVmQdeEctq9eO-8" style="edgeStyle=orthogonalEdgeStyle;rounded=0;orthogonalLoop=1;jettySize=auto;html=1;exitX=0.5;exitY=1;exitDx=0;exitDy=0;entryX=0.5;entryY=0;entryDx=0;entryDy=0;" edge="1" parent="WIyWlLk6GJQsqaUBKTNV-1" source="7m2W67UrVmQdeEctq9eO-2" target="7m2W67UrVmQdeEctq9eO-6">
          <mxGeometry relative="1" as="geometry" />
        </mxCell>
        <mxCell id="7m2W67UrVmQdeEctq9eO-9" style="edgeStyle=orthogonalEdgeStyle;rounded=0;orthogonalLoop=1;jettySize=auto;html=1;entryX=0.5;entryY=0;entryDx=0;entryDy=0;" edge="1" parent="WIyWlLk6GJQsqaUBKTNV-1" source="7m2W67UrVmQdeEctq9eO-2" target="7m2W67UrVmQdeEctq9eO-5">
          <mxGeometry relative="1" as="geometry" />
        </mxCell>
        <mxCell id="7m2W67UrVmQdeEctq9eO-10" style="edgeStyle=orthogonalEdgeStyle;rounded=0;orthogonalLoop=1;jettySize=auto;html=1;entryX=0.5;entryY=0;entryDx=0;entryDy=0;exitX=0.5;exitY=1;exitDx=0;exitDy=0;" edge="1" parent="WIyWlLk6GJQsqaUBKTNV-1" source="7m2W67UrVmQdeEctq9eO-2" target="7m2W67UrVmQdeEctq9eO-7">
          <mxGeometry relative="1" as="geometry" />
        </mxCell>
        <mxCell id="7m2W67UrVmQdeEctq9eO-2" value="Menu" style="rounded=1;whiteSpace=wrap;html=1;absoluteArcSize=1;arcSize=14;strokeWidth=2;" vertex="1" parent="WIyWlLk6GJQsqaUBKTNV-1">
          <mxGeometry x="289" y="200" width="250" height="50" as="geometry" />
        </mxCell>
        <mxCell id="7m2W67UrVmQdeEctq9eO-4" value="マウスクリック" style="text;html=1;align=center;verticalAlign=middle;resizable=0;points=[];autosize=1;strokeColor=none;fillColor=none;" vertex="1" parent="WIyWlLk6GJQsqaUBKTNV-1">
          <mxGeometry x="414" y="128" width="110" height="30" as="geometry" />
        </mxCell>
        <mxCell id="7m2W67UrVmQdeEctq9eO-5" value="StageSelect" style="rounded=1;whiteSpace=wrap;html=1;absoluteArcSize=1;arcSize=14;strokeWidth=2;" vertex="1" parent="WIyWlLk6GJQsqaUBKTNV-1">
          <mxGeometry x="289" y="380" width="250" height="50" as="geometry" />
        </mxCell>
        <mxCell id="7m2W67UrVmQdeEctq9eO-6" value="Option" style="rounded=1;whiteSpace=wrap;html=1;absoluteArcSize=1;arcSize=14;strokeWidth=2;" vertex="1" parent="WIyWlLk6GJQsqaUBKTNV-1">
          <mxGeometry x="10" y="380" width="250" height="50" as="geometry" />
        </mxCell>
        <mxCell id="7m2W67UrVmQdeEctq9eO-7" value="EndGame" style="rounded=1;whiteSpace=wrap;html=1;absoluteArcSize=1;arcSize=14;strokeWidth=2;" vertex="1" parent="WIyWlLk6GJQsqaUBKTNV-1">
          <mxGeometry x="577" y="380" width="250" height="50" as="geometry" />
        </mxCell>
        <mxCell id="7m2W67UrVmQdeEctq9eO-12" value="optionボタンをクリック" style="text;html=1;align=center;verticalAlign=middle;resizable=0;points=[];autosize=1;strokeColor=none;fillColor=none;" vertex="1" parent="WIyWlLk6GJQsqaUBKTNV-1">
          <mxGeometry x="60" y="280" width="150" height="30" as="geometry" />
        </mxCell>
        <mxCell id="7m2W67UrVmQdeEctq9eO-13" value="ステージ選択ボタンをクリック" style="text;html=1;align=center;verticalAlign=middle;resizable=0;points=[];autosize=1;strokeColor=none;fillColor=none;" vertex="1" parent="WIyWlLk6GJQsqaUBKTNV-1">
          <mxGeometry x="414" y="320" width="190" height="30" as="geometry" />
        </mxCell>
        <mxCell id="7m2W67UrVmQdeEctq9eO-14" value="ゲーム終了ボタンをクリック" style="text;html=1;align=center;verticalAlign=middle;resizable=0;points=[];autosize=1;strokeColor=none;fillColor=none;" vertex="1" parent="WIyWlLk6GJQsqaUBKTNV-1">
          <mxGeometry x="715" y="320" width="180" height="30" as="geometry" />
        </mxCell>
      </root>
    </mxGraphModel>
  </diagram>
</mxfile>
